<svg width="14.000000" height="14.000000" viewBox="0 0 14 14" fill="none" xmlns="http://www.w3.org/2000/svg" xmlns:xlink="http://www.w3.org/1999/xlink">
	<desc>
			Created with Pixso.
	</desc>
	<defs/>
	<path id="Shape" d="M4.375 0L9.625 0C12.0409 0 14 1.95911 14 4.375L14 9.625C14 12.0409 12.0409 14 9.625 14L4.375 14C1.95911 14 0 12.0409 0 9.625L0 4.375C0 1.95911 1.95911 0 4.375 0ZM9.625 12.6875C11.3137 12.6875 12.6875 11.3137 12.6875 9.625L12.6875 4.375C12.6875 2.68628 11.3137 1.3125 9.625 1.3125L4.375 1.3125C2.68628 1.3125 1.3125 2.68628 1.3125 4.375L1.3125 9.625C1.3125 11.3137 2.68628 12.6875 4.375 12.6875L9.625 12.6875Z" clip-rule="evenodd" fill="#9094A6" fill-opacity="1.000000" fill-rule="evenodd"/>
	<path id="Shape" d="M3.5 7C3.5 5.06714 5.06714 3.5 7 3.5C8.93286 3.5 10.5 5.06714 10.5 7C10.5 8.93286 8.93286 10.5 7 10.5C5.06714 10.5 3.5 8.93286 3.5 7ZM4.8125 7C4.8125 8.20575 5.79419 9.1875 7 9.1875C8.20581 9.1875 9.1875 8.20575 9.1875 7C9.1875 5.7934 8.20581 4.8125 7 4.8125C5.79419 4.8125 4.8125 5.7934 4.8125 7Z" clip-rule="evenodd" fill="#9094A6" fill-opacity="1.000000" fill-rule="evenodd"/>
	<circle id="Oval" cx="10.762573" cy="3.237488" r="0.466375" fill="#9094A6" fill-opacity="1.000000"/>
</svg>
