<svg width="320.614014" height="55.346252" viewBox="0 0 320.614 55.3463" fill="none" xmlns="http://www.w3.org/2000/svg" xmlns:xlink="http://www.w3.org/1999/xlink">
	<desc>
			Created with Pixso.
	</desc>
	<defs/>
	<path id="SvgjsPath1007" d="M6.92444 1.67316L24.8652 45.6553L42.7231 1.04364C42.8391 0.712341 43.0048 0.463837 43.2367 0.281616C43.4686 0.0993958 43.7336 0 44.0649 0L48.1898 0C48.6703 0 49.0016 0.0993958 49.2003 0.298187C49.3992 0.496979 49.4985 0.762024 49.4985 1.12646C49.4985 1.27557 49.4653 1.45779 49.3826 1.72284L40.8512 22.2478C42.4746 26.1739 44.0815 30.0834 45.6719 33.9598C47.2787 37.8362 48.8856 41.7292 50.509 45.6553C53.5074 38.2504 56.5225 30.8952 59.5209 23.5731C62.5358 16.251 65.5342 8.87924 68.5492 1.45779C68.7479 1.0105 68.9965 0.646057 69.2947 0.397583C69.5928 0.132538 70.007 0 70.5536 0L73.6846 0C74.2146 0 74.6123 0.0993958 74.8773 0.298187C75.1589 0.496979 75.2914 0.762024 75.2914 1.12646C75.2914 1.19275 75.2749 1.27557 75.2583 1.37497C75.2252 1.47437 75.2086 1.55719 75.1755 1.60687L53.4908 53.7062C53.4578 53.8387 53.4081 53.9381 53.3418 54.0044L53.2258 54.2363C53.1429 54.3854 53.0602 54.5345 52.9276 54.7002C52.7952 54.8658 52.6295 55.0149 52.4141 55.1475C52.1821 55.28 51.9171 55.3463 51.6189 55.3463L49.3495 55.3463C48.7034 55.3463 48.2561 55.1806 47.9911 54.8493C47.726 54.5179 47.5769 54.2032 47.5272 53.9381L37.5381 30.0503L27.6648 53.7062C27.5323 54.3026 27.2672 54.7333 26.8365 54.9818C26.4059 55.2303 26.0083 55.3463 25.6107 55.3463L23.5896 55.3463C23.2915 55.3463 23.043 55.2965 22.8442 55.1806C22.6454 55.0646 22.4797 54.9487 22.3307 54.7996C22.1815 54.6339 22.0656 54.4848 21.9662 54.3192C21.8834 54.1701 21.8171 54.021 21.7675 53.905L0.115967 1.72284C0.115967 1.65659 0.0993652 1.5903 0.0496826 1.47437C0.0166016 1.3584 0 1.24243 0 1.12646C0 0.364441 0.463867 0 1.375 0L5.00281 0C5.84766 0 6.47717 0.563232 6.92444 1.67316ZM90.2833 0C89.1899 0 88.6433 0.563263 88.6433 1.72284L88.6433 53.7891C88.6433 54.8327 89.1899 55.3463 90.2833 55.3463L126.446 55.3463C127.54 55.3463 128.086 54.7996 128.086 53.7062L128.086 50.625C128.086 49.4489 127.523 48.869 126.413 48.869L95.104 48.869L95.104 29.4374L119.737 29.4374C120.284 29.4374 120.682 29.2717 120.963 28.9239C121.245 28.576 121.377 28.1784 121.377 27.7311L121.377 24.683C121.377 24.0701 121.212 23.6394 120.897 23.3743C120.566 23.0927 120.185 22.9602 119.737 22.9602L95.104 22.9602L95.104 6.4938L126.065 6.4938C126.645 6.4938 127.076 6.31158 127.374 5.96368Q127.62 5.6767 127.731 5.34457Q127.821 5.07288 127.821 4.77097L127.821 1.75598C127.821 0.579803 127.258 0 126.148 0L90.2833 0ZM203.776 43.2367L176.674 43.2367L172.466 53.8553C172.069 54.8493 171.39 55.3463 170.412 55.3463L167.215 55.3463C166.138 55.3463 165.608 54.9487 165.608 54.1535C165.608 53.9382 165.625 53.7062 165.674 53.4578C165.708 53.3418 165.741 53.259 165.79 53.1927C168.474 46.7321 170.843 41.0334 172.897 36.0968C174.935 31.1602 176.724 26.8863 178.248 23.2418C179.755 19.5973 181.031 16.5327 182.074 14.0478C183.118 11.5629 183.979 9.50876 184.659 7.88531C185.321 6.26187 185.835 5.00287 186.216 4.14145C186.597 3.26346 186.862 2.63397 187.044 2.21982C187.21 1.80569 187.309 1.57376 187.342 1.49094L187.375 1.37497C187.475 1.10992 187.641 0.811737 187.872 0.480408C188.104 0.16568 188.568 0 189.231 0L191.434 0C192.064 0 192.478 0.16568 192.726 0.480408C192.958 0.811737 193.14 1.10992 193.256 1.37497L214.726 53.2258C214.726 53.259 214.775 53.3749 214.858 53.6068C214.941 53.8222 214.991 54.0044 214.991 54.1535C214.991 54.5511 214.842 54.8493 214.527 55.0481C214.212 55.2469 213.814 55.3463 213.318 55.3463L210.104 55.3463C209.607 55.3463 209.193 55.2137 208.861 54.9652C208.53 54.7002 208.265 54.3523 208.099 53.9382L203.776 43.2367ZM228.243 53.7062C228.243 54.7996 228.773 55.3463 229.883 55.3463L233.047 55.3463C234.141 55.3463 234.687 54.7996 234.687 53.7062L234.687 35.0698L250.673 35.0698C251.17 35.0698 251.568 35.0698 251.866 35.0532C252.164 35.0366 252.446 35.0201 252.727 34.9704L261.739 53.9382C261.938 54.3854 262.186 54.7333 262.468 54.9818C262.75 55.2303 263.147 55.3463 263.644 55.3463L267.405 55.3463C267.835 55.3463 268.167 55.2634 268.399 55.0646C268.63 54.8824 268.746 54.6505 268.746 54.3854C268.746 54.2364 268.697 54.0044 268.564 53.7062L258.757 33.5126C260.281 32.8168 261.656 31.9222 262.899 30.8455C264.141 29.7687 265.201 28.5263 266.112 27.1513C267.007 25.7764 267.686 24.2854 268.2 22.662C268.697 21.0385 268.945 19.3654 268.945 17.5929C268.945 15.1743 268.481 12.9048 267.57 10.7678C266.676 8.63077 265.433 6.75885 263.843 5.16855C262.269 3.56165 260.414 2.30264 258.293 1.37497C256.173 0.463867 253.887 0 251.419 0L229.883 0C229.37 0 228.989 0.149109 228.69 0.463867C228.376 0.778595 228.243 1.20932 228.243 1.78912L228.243 53.7062ZM320.018 0.414154C319.67 0.132538 319.272 0 318.825 0L280.475 0C279.962 0 279.564 0.149109 279.249 0.447296C278.951 0.745483 278.785 1.14307 278.785 1.64001L278.785 4.68814C278.785 5.31763 278.951 5.76489 279.249 6.06308C279.564 6.3447 279.962 6.4938 280.475 6.4938L296.461 6.4938L296.461 53.6731C296.461 54.1701 296.61 54.5677 296.942 54.8824C297.273 55.1972 297.67 55.3463 298.167 55.3463L301.199 55.3463C301.762 55.3463 302.193 55.1971 302.474 54.8658C302.756 54.5345 302.905 54.1535 302.905 53.6731L302.905 6.4938L318.825 6.4938C319.388 6.4938 319.835 6.31158 320.15 5.96368C320.448 5.61581 320.614 5.20166 320.614 4.68814L320.614 1.64001C320.564 1.09335 320.365 0.679199 320.018 0.414154ZM259.37 25.3788C260.364 24.3683 261.126 23.1755 261.706 21.8171C262.286 20.4753 262.568 19.0507 262.568 17.5598C262.568 16.0688 262.286 14.6442 261.706 13.3023C261.126 11.9605 260.348 10.7843 259.354 9.74069C258.36 8.71362 257.184 7.90189 255.825 7.28897C254.45 6.67603 252.993 6.37784 251.419 6.37784L234.687 6.37784L234.687 28.7085L251.535 28.7085C253.092 28.7085 254.55 28.4103 255.892 27.814C257.233 27.201 258.393 26.4059 259.37 25.3788ZM190.324 9.62469L201.158 36.9085L179.358 36.9085L190.324 9.62469Z" clip-rule="evenodd" fill="#393C49" fill-opacity="1.000000" fill-rule="evenodd"/>
</svg>
