<svg width="12.186554" height="14.999268" viewBox="0 0 12.1866 14.9993" fill="none" xmlns="http://www.w3.org/2000/svg" xmlns:xlink="http://www.w3.org/1999/xlink">
	<desc>
			Created with Pixso.
	</desc>
	<defs/>
	<path id="Path" d="M6.29718 0C2.18625 0 0 2.6344 0 5.50684C0 6.83911 0.744385 8.50037 1.93594 9.02722C2.11688 9.10876 2.2153 9.0741 2.25562 8.90625C2.29126 8.77881 2.44781 8.16467 2.52374 7.875C2.54718 7.78223 2.535 7.70154 2.45999 7.61438C2.06436 7.15686 1.75031 6.32349 1.75031 5.5415C1.75031 3.53809 3.34314 1.59277 6.05344 1.59277C8.39719 1.59277 10.0369 3.11536 10.0369 5.29309C10.0369 7.75403 8.73468 9.45654 7.04251 9.45654C6.10593 9.45654 5.40845 8.72156 5.6297 7.81213C5.89688 6.72937 6.42093 5.56494 6.42093 4.78406C6.42093 4.08374 6.0253 3.50439 5.21719 3.50439C4.26376 3.50439 3.49033 4.44849 3.49033 5.71594C3.49033 6.52124 3.7753 7.06494 3.7753 7.06494C3.7753 7.06494 2.83218 10.875 2.65686 11.5865C2.36063 12.7913 2.69717 14.7422 2.72626 14.91C2.74405 15.0028 2.84811 15.0319 2.90625 14.9559C2.99905 14.8341 4.13907 13.2075 4.45874 12.0319C4.57501 11.6034 5.05219 9.86621 5.05219 9.86621C5.36624 10.4335 6.27283 10.9087 7.23843 10.9087C10.1109 10.9087 12.1866 8.38403 12.1866 5.25098C12.1762 2.24719 9.60562 0 6.29718 0Z" fill="#393C49" fill-opacity="1.000000" fill-rule="nonzero"/>
</svg>
