<svg width="12.186523" height="14.999329" viewBox="0 0 12.1865 14.9993" fill="none" xmlns="http://www.w3.org/2000/svg" xmlns:xlink="http://www.w3.org/1999/xlink">
	<desc>
			Created with Pixso.
	</desc>
	<defs/>
	<path id="Path" d="M6.29724 0C2.18628 0 0 2.6344 0 5.5069C0 6.83905 0.744385 8.50031 1.93591 9.02716C2.11682 9.10876 2.21533 9.07404 2.25562 8.90625C2.29126 8.77875 2.44775 8.16467 2.5238 7.875C2.54724 7.78217 2.53503 7.70154 2.45996 7.61438C2.06433 7.15686 1.75037 6.32343 1.75037 5.54156C1.75037 3.53815 3.34314 1.59283 6.05347 1.59283C8.39722 1.59283 10.0369 3.1153 10.0369 5.29315C10.0369 7.75409 8.73474 9.45654 7.04248 9.45654C6.10596 9.45654 5.40845 8.72156 5.62964 7.81219C5.89685 6.72937 6.4209 5.565 6.4209 4.78406C6.4209 4.08374 6.02527 3.50439 5.21716 3.50439C4.26379 3.50439 3.49036 4.44843 3.49036 5.71594C3.49036 6.52124 3.77527 7.065 3.77527 7.065C3.77527 7.065 2.83215 10.875 2.65686 11.5865C2.3606 12.7913 2.69714 14.7422 2.7262 14.91C2.74402 15.0028 2.84814 15.0319 2.90625 14.9559C2.99902 14.834 4.13904 13.2075 4.45874 12.0319C4.57495 11.6035 5.05225 9.86627 5.05225 9.86627C5.36621 10.4334 6.27283 10.9088 7.2384 10.9088C10.111 10.9088 12.1865 8.38403 12.1865 5.25092C12.1763 2.24719 9.60559 0 6.29724 0Z" fill="#393C49" fill-opacity="1.000000" fill-rule="nonzero"/>
</svg>
