<svg width="159.385880" height="27.514160" viewBox="0 0 159.386 27.5142" fill="none" xmlns="http://www.w3.org/2000/svg" xmlns:xlink="http://www.w3.org/1999/xlink">
	<desc>
			Created with Pixso.
	</desc>
	<defs/>
	<path id="SvgjsPath1007" d="M3.44235 0.831787L12.3612 22.6964L21.2388 0.518799C21.2965 0.354126 21.3788 0.230591 21.4941 0.140015C21.6094 0.0494385 21.7412 0 21.9059 0L23.9565 0C24.1953 0 24.36 0.0494385 24.4588 0.148193C24.5576 0.24707 24.6071 0.378784 24.6071 0.560059C24.6071 0.634155 24.5906 0.724731 24.5494 0.856445L20.3082 11.0601C21.1153 13.0117 21.9141 14.9553 22.7047 16.8823C23.5035 18.8094 24.3024 20.7448 25.1094 22.6964C26.6 19.0153 28.0988 15.3588 29.5894 11.7189C31.0882 8.07886 32.5788 4.41406 34.0776 0.724731C34.1765 0.502319 34.3 0.321167 34.4482 0.197632C34.5965 0.065918 34.8024 0 35.0741 0L36.6306 0Q37.0259 0 37.2235 0.148193C37.3635 0.24707 37.4294 0.378784 37.4294 0.560059C37.4294 0.592896 37.4212 0.634155 37.4129 0.683472C37.3965 0.73291 37.3882 0.77417 37.3718 0.798828L26.5918 26.6989Q26.5671 26.7976 26.5176 26.847L26.46 26.9624C26.4188 27.0365 26.3776 27.1106 26.3118 27.193C26.2459 27.2753 26.1635 27.3494 26.0565 27.4153C25.9412 27.4812 25.8094 27.5142 25.6612 27.5142L24.5329 27.5142C24.2118 27.5142 23.9894 27.4318 23.8576 27.2671C23.7259 27.1023 23.6518 26.9459 23.6271 26.8141L18.6612 14.9388L13.7529 26.6989C13.6871 26.9952 13.5553 27.2095 13.3412 27.3329C13.1271 27.4564 12.9294 27.5142 12.7318 27.5142L11.7271 27.5142C11.5788 27.5142 11.4553 27.4894 11.3565 27.4318C11.2576 27.3741 11.1753 27.3165 11.1012 27.2423C11.0271 27.16 10.9694 27.0859 10.92 27.0035C10.8788 26.9294 10.8459 26.8553 10.8212 26.7976L0.0576477 0.856445C0.0576477 0.823486 0.049408 0.790527 0.024704 0.73291Q0 0.646484 0 0.560059C0 0.181152 0.230591 0 0.683533 0L2.48706 0C2.90706 0 3.22 0.280029 3.44235 0.831787ZM44.8824 0C44.3388 0 44.0671 0.280029 44.0671 0.856445L44.0671 26.74C44.0671 27.2588 44.3388 27.5142 44.8824 27.5142L62.86 27.5142C63.4035 27.5142 63.6753 27.2423 63.6753 26.6989L63.6753 25.1671C63.6753 24.5824 63.3953 24.2941 62.8435 24.2941L47.2788 24.2941L47.2788 14.6342L59.5247 14.6342C59.7965 14.6342 59.9941 14.5518 60.1341 14.3788C60.2741 14.2059 60.34 14.0082 60.34 13.7859L60.34 12.2706C60.34 11.9659 60.2576 11.7517 60.1012 11.62C59.9365 11.48 59.7471 11.4141 59.5247 11.4141L47.2788 11.4141L47.2788 3.22827L62.6706 3.22827C62.9588 3.22827 63.1729 3.1377 63.3212 2.96472C63.4694 2.79175 63.5435 2.59412 63.5435 2.3717L63.5435 0.872925C63.5435 0.288208 63.2635 0 62.7118 0L44.8824 0ZM101.302 21.4941L87.8294 21.4941L85.7376 26.7729C85.54 27.2671 85.2023 27.5142 84.7165 27.5142L83.1271 27.5142C82.5918 27.5142 82.3282 27.3165 82.3282 26.9211C82.3282 26.8141 82.3365 26.6989 82.3612 26.5753C82.3776 26.5177 82.3941 26.4764 82.4188 26.4435C83.7529 23.2318 84.9306 20.3988 85.9518 17.9447C86.9647 15.4906 87.8541 13.3658 88.6118 11.5541Q89.7359 8.83643 90.5141 6.98352C91.0329 5.74829 91.4612 4.72705 91.7988 3.92004C92.1282 3.11292 92.3835 2.48706 92.5729 2.05884C92.7624 1.62231 92.8941 1.30945 92.9847 1.10352C93.0671 0.897705 93.1165 0.782349 93.1329 0.741211L93.1494 0.683472C93.1988 0.551758 93.2812 0.403564 93.3965 0.23877C93.5118 0.0823975 93.7423 0 94.0718 0L95.1671 0C95.48 0 95.6859 0.0823975 95.8094 0.23877C95.9247 0.403564 96.0153 0.551758 96.0729 0.683472L106.746 26.46C106.746 26.4764 106.771 26.5342 106.812 26.6494C106.853 26.7565 106.878 26.847 106.878 26.9211C106.878 27.1188 106.804 27.2671 106.647 27.3658C106.491 27.4647 106.293 27.5142 106.046 27.5142L104.448 27.5142C104.201 27.5142 103.995 27.4482 103.831 27.3247C103.666 27.193 103.534 27.02 103.452 26.8141L101.302 21.4941ZM113.466 26.6989C113.466 27.2423 113.729 27.5142 114.281 27.5142L115.854 27.5142C116.398 27.5142 116.669 27.2423 116.669 26.6989L116.669 17.4341L124.616 17.4341C124.864 17.4341 125.061 17.4341 125.209 17.4259C125.358 17.4176 125.498 17.4094 125.638 17.3848L130.118 26.8141C130.216 27.0365 130.34 27.2095 130.48 27.3329C130.62 27.4564 130.818 27.5142 131.065 27.5142L132.934 27.5142C133.148 27.5142 133.313 27.4729 133.428 27.3741C133.544 27.2836 133.601 27.1682 133.601 27.0365C133.601 26.9624 133.576 26.847 133.511 26.6989L128.635 16.66C129.393 16.3141 130.076 15.8694 130.694 15.3341C131.312 14.7988 131.839 14.1812 132.292 13.4977C132.736 12.8141 133.074 12.073 133.329 11.2659C133.576 10.4589 133.7 9.62708 133.7 8.74585C133.7 7.54358 133.469 6.41528 133.016 5.35291C132.572 4.29053 131.954 3.35999 131.164 2.56946C130.381 1.77063 129.459 1.14465 128.405 0.683472C127.351 0.230591 126.214 0 124.987 0L114.281 0C114.026 0 113.836 0.0740967 113.688 0.230591C113.532 0.387085 113.466 0.601196 113.466 0.889404L113.466 26.6989ZM159.089 0.205933C158.916 0.065918 158.719 0 158.496 0L139.432 0C139.176 0 138.979 0.0740967 138.822 0.222412C138.674 0.370605 138.592 0.568237 138.592 0.815308L138.592 2.33057C138.592 2.64355 138.674 2.86584 138.822 3.01416C138.979 3.15417 139.176 3.22827 139.432 3.22827L147.379 3.22827L147.379 26.6824C147.379 26.9294 147.453 27.1271 147.618 27.2836C147.782 27.4399 147.98 27.5142 148.227 27.5142L149.734 27.5142C150.014 27.5142 150.228 27.4399 150.368 27.2753C150.508 27.1106 150.582 26.9211 150.582 26.6824L150.582 3.22827L158.496 3.22827C158.776 3.22827 158.999 3.1377 159.155 2.96472C159.304 2.79175 159.386 2.58594 159.386 2.33057L159.386 0.815308C159.361 0.543579 159.262 0.337646 159.089 0.205933ZM128.94 12.6165C129.434 12.1141 129.813 11.5211 130.101 10.8458C130.389 10.1788 130.529 9.47058 130.529 8.72937C130.529 7.98828 130.389 7.28003 130.101 6.61292C129.813 5.94592 129.426 5.36121 128.932 4.84241C128.438 4.33179 127.853 3.92822 127.178 3.62354C126.494 3.31885 125.769 3.17053 124.987 3.17053L116.669 3.17053L116.669 14.2717L125.045 14.2717C125.819 14.2717 126.544 14.1235 127.211 13.827C127.878 13.5223 128.454 13.1271 128.94 12.6165ZM94.6153 4.78467L100.001 18.3483L89.1635 18.3483L94.6153 4.78467Z" clip-rule="evenodd" fill="#393C49" fill-opacity="1.000000" fill-rule="evenodd"/>
</svg>
